<?xml version="1.0" encoding="UTF-8" standalone="no"?>
<!DOCTYPE svg PUBLIC "-//W3C//DTD SVG 1.1//EN" "http://www.w3.org/Graphics/SVG/1.1/DTD/svg11.dtd">
<svg xmlns="http://www.w3.org/2000/svg" version="1.1" viewBox="0 0 242 273">
<path fill="#ffffff" d="
  M 116.31 0.00
  L 122.56 0.00
  C 138.79 0.89 151.46 2.38 165.14 6.96
  A 1.23 1.22 9.3 0 1 165.98 8.12
  C 166.02 13.03 160.95 14.77 156.50 14.23
  C 151.25 13.59 144.82 10.34 139.75 10.17
  C 137.62 10.10 127.56 11.64 130.61 15.53
  A 1.45 1.45 0.0 0 0 131.43 16.04
  C 143.11 18.60 155.68 16.64 167.49 15.74
  C 170.93 15.48 184.08 16.48 185.43 21.09
  Q 187.56 28.38 181.70 31.58
  C 175.71 34.85 166.04 31.10 159.43 28.89
  C 152.98 26.74 144.62 26.14 138.46 29.36
  C 135.12 31.11 134.44 33.99 135.86 37.28
  A 1.29 1.26 89.7 0 0 136.51 37.94
  Q 139.43 39.22 142.94 38.65
  C 157.71 36.20 202.55 35.16 211.02 50.98
  C 214.77 58.00 208.14 63.84 201.49 63.20
  C 188.39 61.94 178.91 53.66 166.74 49.73
  C 155.22 46.01 133.72 46.50 127.55 59.68
  C 123.28 68.81 127.06 79.00 137.41 81.53
  C 142.85 82.86 147.47 86.69 150.81 78.95
  A 1.75 1.71 85.1 0 1 151.42 78.21
  C 168.22 66.61 194.22 74.12 211.34 82.31
  A 0.51 0.50 -65.3 0 1 211.58 82.97
  C 206.20 95.00 221.14 100.53 230.19 96.34
  A 0.75 0.75 0.0 0 1 231.07 96.52
  C 239.52 106.18 241.28 115.87 242.00 128.31
  L 242.00 130.06
  C 240.81 156.48 223.28 178.71 198.59 188.11
  C 189.96 191.40 182.72 191.21 174.13 187.08
  C 161.55 181.04 149.11 172.54 139.07 164.10
  A 1.49 1.45 65.5 0 0 138.18 163.75
  C 135.69 163.62 129.72 164.49 130.02 168.38
  A 0.91 0.90 11.1 0 0 130.52 169.12
  Q 141.32 174.68 149.95 183.30
  C 163.25 196.58 177.27 214.09 183.32 232.08
  A 0.48 0.47 73.2 0 1 183.00 232.69
  Q 168.59 236.58 153.69 235.78
  C 121.98 234.09 89.49 229.62 62.57 245.34
  A 0.63 0.63 0.0 0 1 61.62 244.78
  C 62.11 228.73 66.14 213.17 75.72 200.09
  C 84.58 188.01 95.82 176.39 109.27 169.42
  A 1.05 1.04 82.1 0 0 109.81 168.70
  C 110.52 165.15 103.98 164.70 101.52 164.70
  A 1.56 1.52 -62.5 0 0 100.61 165.00
  Q 83.73 177.94 66.70 186.70
  C 55.22 192.60 43.70 190.53 32.56 184.68
  C 1.99 168.64 -9.28 129.72 8.69 99.96
  A 0.59 0.59 0.0 0 1 9.41 99.72
  C 18.52 103.28 29.39 95.54 23.22 86.39
  A 0.51 0.51 0.0 0 1 23.34 85.69
  Q 28.85 81.81 38.44 77.97
  C 41.84 76.60 64.71 69.34 63.60 74.06
  A 0.75 0.75 0.0 0 0 63.83 74.80
  L 66.36 77.09
  A 1.26 1.25 -23.6 0 0 67.21 77.42
  L 72.02 77.38
  A 1.21 1.18 -21.4 0 1 72.92 77.76
  C 74.04 78.96 74.78 80.07 76.40 80.55
  Q 81.47 82.05 85.82 79.04
  A 1.68 1.66 82.5 0 0 86.45 78.21
  L 86.93 76.81
  A 0.52 0.51 25.6 0 1 87.69 76.55
  C 97.37 82.67 112.43 80.55 112.81 66.80
  C 113.09 56.45 105.37 52.15 96.83 49.43
  C 74.71 42.40 62.19 58.66 42.26 62.82
  C 35.95 64.14 26.60 61.31 28.66 52.96
  C 32.23 38.44 66.07 37.49 77.45 37.08
  C 84.07 36.84 91.99 37.89 97.56 38.65
  Q 100.62 39.06 103.36 38.29
  A 1.22 1.18 -83.5 0 0 104.08 37.70
  C 109.07 28.03 94.54 26.80 89.12 27.16
  C 79.72 27.78 63.74 37.92 56.33 29.68
  C 53.83 26.90 53.36 22.96 55.72 20.05
  C 58.83 16.23 68.50 15.49 73.00 15.79
  C 78.16 16.14 108.41 19.57 110.15 14.64
  A 2.06 2.04 -68.5 0 0 109.05 12.09
  Q 101.95 8.95 94.55 11.27
  C 86.82 13.70 77.50 17.87 73.76 8.68
  A 0.87 0.87 0.0 0 1 74.23 7.55
  C 88.47 1.61 101.23 1.14 116.31 0.00
  Z
  M 172.46 81.30
  A 5.86 5.86 0.0 0 0 166.60 75.44
  A 5.86 5.86 0.0 0 0 160.74 81.30
  A 5.86 5.86 0.0 0 0 166.60 87.16
  A 5.86 5.86 0.0 0 0 172.46 81.30
  Z
  M 201.23 84.75
  C 200.73 81.82 198.12 80.46 195.57 81.89
  A 0.80 0.80 0.0 0 0 195.18 82.70
  L 195.64 85.83
  A 0.73 0.73 0.0 0 0 196.30 86.44
  L 199.47 86.68
  A 1.65 1.65 0.0 0 0 201.23 84.75
  Z
  M 37.1244 85.9093
  A 4.50 4.26 -37.2 0 0 30.9644 85.2368
  A 4.50 4.26 -37.2 0 0 29.9556 91.3507
  A 4.50 4.26 -37.2 0 0 36.1156 92.0232
  A 4.50 4.26 -37.2 0 0 37.1244 85.9093
  Z
  M 106.92 87.18
  A 2.21 2.21 0.0 0 0 104.71 84.97
  A 2.21 2.21 0.0 0 0 102.50 87.18
  A 2.21 2.21 0.0 0 0 104.71 89.39
  A 2.21 2.21 0.0 0 0 106.92 87.18
  Z
  M 94.55 95.96
  A 5.03 5.03 0.0 0 0 89.52 90.93
  A 5.03 5.03 0.0 0 0 84.49 95.96
  A 5.03 5.03 0.0 0 0 89.52 100.99
  A 5.03 5.03 0.0 0 0 94.55 95.96
  Z
  M 83.02 118.82
  A 0.68 0.68 0.0 0 0 81.87 119.04
  C 76.03 135.01 52.37 124.35 64.64 107.85
  A 0.45 0.45 0.0 0 0 64.39 107.15
  Q 43.14 101.44 24.22 111.55
  C 20.37 113.60 18.20 114.16 18.25 118.50
  C 18.46 136.11 26.23 150.80 41.29 159.91
  Q 66.16 174.94 94.39 160.73
  A 1.66 1.64 -9.5 0 0 95.28 159.49
  Q 98.37 136.13 83.02 118.82
  Z
  M 177.32 110.43
  C 190.57 125.63 165.37 138.05 160.21 121.94
  A 0.77 0.77 0.0 0 0 158.90 121.67
  Q 144.23 138.33 146.38 160.28
  Q 146.63 162.81 149.18 164.07
  C 182.51 180.56 223.55 160.88 223.65 121.46
  C 223.66 116.30 220.74 115.61 215.93 113.23
  Q 197.66 104.17 177.47 109.93
  A 0.31 0.31 0.0 0 0 177.32 110.43
  Z
  M 97.02 156.00
  C 99.66 166.18 117.38 162.87 115.31 172.23
  Q 115.20 172.75 115.68 172.53
  C 119.48 170.83 117.51 161.55 116.04 158.99
  C 113.47 154.49 109.32 149.32 103.75 149.69
  C 100.43 149.91 95.90 151.70 97.02 156.00
  Z
  M 142.58 157.95
  C 145.70 152.74 140.25 149.22 135.91 149.57
  C 126.23 150.37 119.32 164.04 124.27 172.36
  Q 124.53 172.79 124.55 172.29
  C 124.89 162.02 137.91 165.75 142.58 157.95
  Z
  M 123.96 150.78
  C 121.46 152.89 119.31 153.04 116.61 151.14
  Q 115.40 150.28 116.40 151.37
  L 118.77 153.96
  A 1.17 1.16 -22.7 0 0 119.69 154.33
  Q 122.96 154.13 124.33 151.05
  Q 124.75 150.12 123.96 150.78
  Z"
/>
<circle fill="#ffffff" cx="71.30" cy="132.19" r="3.79"/>
<circle fill="#ffffff" cx="169.81" cy="134.87" r="3.75"/>
<path fill="#ffffff" d="
  M 118.00 242.54
  C 138.16 243.30 158.05 245.31 178.18 242.60
  Q 178.67 242.54 178.26 242.82
  C 163.82 252.78 148.64 263.47 132.66 270.15
  Q 123.16 274.13 112.81 271.19
  Q 88.78 264.37 66.30 253.38
  A 0.21 0.21 0.0 0 1 66.29 253.01
  C 82.02 243.66 100.07 241.87 118.00 242.54
  Z"
/>
</svg>
